<svg width="30" height="30" viewBox="0 0 30 30" xmlns="http://www.w3.org/2000/svg">
	<path d="M15 6.80723C17.6506 6.80723 18.0121 6.80723 19.0964 6.80723C20.0602 6.80723 20.5422 7.04819 20.9036 7.16868C21.3855 7.40964 21.747 7.53012 22.1084 7.89157C22.4699 8.25301 22.7108 8.61446 22.8313 9.09639C22.9518 9.45783 23.0723 9.93976 23.1928 10.9036C23.1928 11.988 23.1928 12.2289 23.1928 15C23.1928 17.7711 23.1928 18.0121 23.1928 19.0964C23.1928 20.0602 22.9518 20.5422 22.8313 20.9036C22.5904 21.3855 22.4699 21.747 22.1084 22.1084C21.747 22.4699 21.3855 22.7108 20.9036 22.8313C20.5422 22.9518 20.0602 23.0723 19.0964 23.1928C18.0121 23.1928 17.7711 23.1928 15 23.1928C12.2289 23.1928 11.988 23.1928 10.9036 23.1928C9.93976 23.1928 9.45783 22.9518 9.09639 22.8313C8.61446 22.5904 8.25301 22.4699 7.89157 22.1084C7.53012 21.747 7.28916 21.3855 7.16868 20.9036C7.04819 20.5422 6.92771 20.0602 6.80723 19.0964C6.80723 18.0121 6.80723 17.7711 6.80723 15C6.80723 12.2289 6.80723 11.988 6.80723 10.9036C6.80723 9.93976 7.04819 9.45783 7.16868 9.09639C7.40964 8.61446 7.53012 8.25301 7.89157 7.89157C8.25301 7.53012 8.61446 7.28916 9.09639 7.16868C9.45783 7.04819 9.93976 6.92771 10.9036 6.80723C11.988 6.80723 12.3494 6.80723 15 6.80723ZM15 5C12.2289 5 11.988 5 10.9036 5C9.81928 5 9.09639 5.24096 8.49398 5.48193C7.89157 5.72289 7.28916 6.08434 6.68675 6.68675C6.08434 7.28916 5.84337 7.77109 5.48193 8.49398C5.24096 9.09639 5.12048 9.81928 5 10.9036C5 11.988 5 12.3494 5 15C5 17.7711 5 18.0121 5 19.0964C5 20.1807 5.24096 20.9036 5.48193 21.506C5.72289 22.1084 6.08434 22.7108 6.68675 23.3133C7.28916 23.9157 7.77109 24.1566 8.49398 24.5181C9.09639 24.759 9.81928 24.8795 10.9036 25C11.988 25 12.3494 25 15 25C17.6506 25 18.0121 25 19.0964 25C20.1807 25 20.9036 24.759 21.506 24.5181C22.1084 24.2771 22.7108 23.9157 23.3133 23.3133C23.9157 22.7108 24.1566 22.2289 24.5181 21.506C24.759 20.9036 24.8795 20.1807 25 19.0964C25 18.0121 25 17.6506 25 15C25 12.3494 25 11.988 25 10.9036C25 9.81928 24.759 9.09639 24.5181 8.49398C24.2771 7.89157 23.9157 7.28916 23.3133 6.68675C22.7108 6.08434 22.2289 5.84337 21.506 5.48193C20.9036 5.24096 20.1807 5.12048 19.0964 5C18.0121 5 17.7711 5 15 5Z" fill="black" />
	<path d="M15 9.81928C12.1084 9.81928 9.81928 12.1084 9.81928 15C9.81928 17.8916 12.1084 20.1807 15 20.1807C17.8916 20.1807 20.1807 17.8916 20.1807 15C20.1807 12.1084 17.8916 9.81928 15 9.81928ZM15 18.3735C13.1928 18.3735 11.6265 16.9277 11.6265 15C11.6265 13.1928 13.0723 11.6265 15 11.6265C16.8072 11.6265 18.3735 13.0723 18.3735 15C18.3735 16.8072 16.8072 18.3735 15 18.3735Z" fill="black" />
	<path d="M20.3012 10.9036C20.9666 10.9036 21.506 10.3642 21.506 9.6988C21.506 9.03339 20.9666 8.49398 20.3012 8.49398C19.6358 8.49398 19.0964 9.03339 19.0964 9.6988C19.0964 10.3642 19.6358 10.9036 20.3012 10.9036Z" fill="black" />
</svg>
