<svg width="30" height="30" viewBox="0 0 30 30" xmlns="http://www.w3.org/2000/svg">
	<path d="M15.4379 22C8.26296 22 4.17052 16.7447 4 8H7.594C7.71205 14.4184 10.3616 17.1371 12.4603 17.6977V8H15.8445V13.5355C17.9169 13.2973 20.0943 10.7748 20.8289 8H24.213C23.9362 9.43908 23.3845 10.8017 22.5923 12.0025C21.8001 13.2033 20.7845 14.2166 19.609 14.979C20.9211 15.6756 22.08 16.6615 23.0093 17.8717C23.9386 19.082 24.6171 20.489 25 22H21.2748C20.9311 20.6876 20.2324 19.5128 19.2664 18.6228C18.3004 17.7328 17.11 17.1673 15.8445 16.997V22H15.4379Z" fill="black" />
</svg>
