<?xml version="1.0" encoding="utf-8"?><svg xmlns="http://www.w3.org/2000/svg" xmlns:xlink="http://www.w3.org/1999/xlink"><style>:root>svg{display:none}:root>svg:target{display:block}</style><svg fill="none" viewBox="0 0 14 20" id="arrow_down_xs" xmlns="http://www.w3.org/2000/svg"><path d="M7 18.666V0M1 13l6 5.5 6-5.5" stroke="#000" stroke-width="2"/></svg><svg fill="none" viewBox="0 0 20 14" id="arrow_left_xs" xmlns="http://www.w3.org/2000/svg"><path d="M1.333 7H20M7 1 1.5 7 7 13" stroke-width="2" stroke="currentColor" vector-effect="non-scaling-stroke"/></svg><svg fill="none" viewBox="0 0 20 14" id="arrow_right_xs" xmlns="http://www.w3.org/2000/svg"><path d="M18 7H0M13 1l5.5 6-5.5 6" stroke-width="2" stroke="currentColor" vector-effect="non-scaling-stroke"/></svg><svg fill="none" viewBox="0 0 14 20" id="arrow_up_xs" xmlns="http://www.w3.org/2000/svg"><path d="M7 1.333V20M1 7l6-5.5L13 7" stroke="currentColor" stroke-width="2" vector-effect="non-scaling-stroke"/></svg><svg fill="none" viewBox="0 0 16 16" id="buy_xs" xmlns="http://www.w3.org/2000/svg"><path d="M5 6.4V4a3 3 0 0 1 6 0v2.4" stroke="#000" stroke-width="2"/><path d="M1.5 6h13l-2 9h-9l-2-9Z" stroke="#000" stroke-width="2"/></svg><svg fill="none" viewBox="0 0 16 16" id="check2_xs" xmlns="http://www.w3.org/2000/svg"><path d="m3 8 4.5 3.5L13 4" stroke="#000" stroke-width="2"/></svg><svg fill="none" viewBox="0 0 16 16" id="check_xs" xmlns="http://www.w3.org/2000/svg"><path d="M15 2 7 12.5 1 8" stroke="currentColor" stroke-width="2" vector-effect="non-scaling-stroke"/></svg><svg fill="none" viewBox="0 0 20 20" id="cross" xmlns="http://www.w3.org/2000/svg"><path d="m1 1 18 18M1 19 19 1" stroke="currentColor" vector-effect="non-scaling-stroke" stroke-width="2"/></svg><svg fill="none" viewBox="0 0 16 16" id="download_xs" xmlns="http://www.w3.org/2000/svg"><path d="M15 1.253v12.209l-7 1.5-7-1.5V1.253l7 1.4 7-1.4ZM8 2v12.8" stroke="currentColor" stroke-width="2" vector-effect="non-scaling-stroke"/></svg><svg viewBox="0 0 30 30" id="fb" xmlns="http://www.w3.org/2000/svg"><path d="M16.38 15.752h3.103l.487-3.308h-3.59v-1.808c0-1.374.428-2.593 1.652-2.593H20V5.156C19.654 5.107 18.923 5 17.542 5c-2.885 0-4.576 1.6-4.576 5.243v2.201H10v3.308h2.966v9.092c.587.093 1.182.156 1.792.156.552 0 1.091-.053 1.623-.128v-9.12Z"/></svg><svg fill="none" viewBox="0 0 16 16" id="filter_xs" xmlns="http://www.w3.org/2000/svg"><path d="M2 1h12l-4 7v5l-4 1.5V8L2 1Z" stroke="currentColor" stroke-width="2" vector-effect="non-scaling-stroke"/></svg><svg fill="none" viewBox="0 0 30 30" id="increase_s" xmlns="http://www.w3.org/2000/svg"><path d="M1 14v16M29 0v16M0 29h16M14 1h16" stroke="#000" stroke-width="2" vector-effect="non-scaling-stroke"/></svg><svg viewBox="0 0 30 30" id="insta" xmlns="http://www.w3.org/2000/svg"><path d="M15 6.807h4.096c.964 0 1.446.241 1.808.362.482.24.843.361 1.204.723.362.361.603.722.723 1.204.12.362.241.844.362 1.808v8.192c0 .964-.241 1.446-.362 1.808-.24.482-.361.843-.723 1.204-.361.362-.723.603-1.204.723-.362.12-.844.241-1.808.362h-8.192c-.964 0-1.446-.241-1.808-.362-.482-.24-.843-.361-1.204-.723-.362-.361-.603-.723-.723-1.204-.12-.362-.241-.844-.362-1.808v-8.192c0-.964.241-1.446.362-1.808.24-.482.361-.843.723-1.204.361-.362.722-.603 1.204-.723.362-.12.844-.241 1.808-.362H15ZM15 5h-4.096c-1.085 0-1.808.241-2.41.482a5.26 5.26 0 0 0-1.807 1.205c-.603.602-.844 1.084-1.205 1.807-.241.602-.362 1.325-.482 2.41v8.192c0 1.085.241 1.808.482 2.41a5.262 5.262 0 0 0 1.205 1.807c.602.603 1.084.844 1.807 1.205.602.241 1.325.361 2.41.482h8.192c1.085 0 1.808-.241 2.41-.482a5.263 5.263 0 0 0 1.807-1.205c.603-.602.844-1.084 1.205-1.807.241-.602.361-1.325.482-2.41v-8.192c0-1.085-.241-1.808-.482-2.41a5.261 5.261 0 0 0-1.205-1.807c-.602-.603-1.084-.844-1.807-1.205-.602-.241-1.325-.362-2.41-.482H15Z"/><path d="M15 9.82A5.142 5.142 0 0 0 9.82 15c0 2.892 2.288 5.18 5.18 5.18s5.18-2.288 5.18-5.18S17.893 9.82 15 9.82Zm0 8.553A3.368 3.368 0 0 1 11.627 15 3.368 3.368 0 0 1 15 11.627 3.368 3.368 0 0 1 18.373 15c0 1.807-1.566 3.373-3.373 3.373ZM20.301 10.904a1.205 1.205 0 1 0 0-2.41 1.205 1.205 0 0 0 0 2.41Z"/></svg><svg fill="none" viewBox="0 0 16 16" id="lock_xs" xmlns="http://www.w3.org/2000/svg"><path d="M4 8V5a4 4 0 0 1 8 0v3" stroke="#000" stroke-width="2"/><path d="M2.5 7h11v8h-11V7ZM8 9v4" stroke="#000" stroke-width="2"/></svg><svg fill="none" viewBox="0 0 30 30" id="play_s" xmlns="http://www.w3.org/2000/svg"><path d="m8 28 20-14L8 2v26Z" stroke="#000" stroke-width="2" vector-effect="non-scaling-stroke"/></svg><svg fill="none" viewBox="0 0 30 30" id="plus_s" xmlns="http://www.w3.org/2000/svg"><path d="M15 0v30M0 15h30" stroke-width="2" stroke="currentColor" vector-effect="non-scaling-stroke"/></svg><svg fill="none" viewBox="0 0 14 14" id="plus_xs" xmlns="http://www.w3.org/2000/svg"><path d="M7 0v14M0 7h14" stroke="#000" stroke-width="2"/></svg><svg viewBox="0 0 30 30" id="vk" xmlns="http://www.w3.org/2000/svg"><path d="M15.438 22C8.263 22 4.17 16.745 4 8h3.594c.118 6.418 2.768 9.137 4.866 9.698V8h3.384v5.536c2.073-.239 4.25-2.761 4.985-5.536h3.384a11.065 11.065 0 0 1-1.62 4.002 10.296 10.296 0 0 1-2.984 2.977 10.512 10.512 0 0 1 3.4 2.893A11.36 11.36 0 0 1 25 22h-3.725a6.995 6.995 0 0 0-2.009-3.377 6.29 6.29 0 0 0-3.421-1.626V22h-.407Z"/></svg></svg>